<svg width="60" height="60" viewBox="0 0 60 60" fill="none" xmlns="http://www.w3.org/2000/svg">
<mask id="mask0_122_6853" style="mask-type:alpha" maskUnits="userSpaceOnUse" x="0" y="0" width="60" height="60">
<path fill-rule="evenodd" clip-rule="evenodd" d="M47.5079 42.5052H38.8418C38.0058 42.5051 37.225 42.9227 36.761 43.6182L35.7455 45.1413C35.2815 45.8368 34.5007 46.2544 33.6647 46.2543H21.3345C20.4985 46.2544 19.7177 45.8368 19.2537 45.1413L18.2383 43.6182C17.7732 42.9226 16.9916 42.505 16.1549 42.5052H7.49128C6.11019 42.5057 4.99073 43.6252 4.99023 45.0063V47.5073C4.99023 48.834 5.51676 50.1066 6.45491 51.0447C7.39306 51.9829 8.66557 52.5097 9.99232 52.5094H45.0069C46.3336 52.5097 47.6062 51.9829 48.5443 51.0447C49.4825 50.1066 50.009 48.834 50.009 47.5073V45.0063C50.0085 43.6252 48.889 42.5057 47.5079 42.5052V42.5052Z" stroke="white" stroke-width="2" stroke-linecap="round" stroke-linejoin="round"/>
<path d="M22.4984 12.4927H11.939C9.62907 12.3584 7.6434 14.1129 7.49219 16.4219V42.5052" stroke="#323232" stroke-width="2" stroke-linecap="round" stroke-linejoin="round"/>
<path d="M47.5083 42.5052V24.9979" stroke="white" stroke-width="2" stroke-linecap="round" stroke-linejoin="round"/>
<path d="M37.504 17.4948L32.502 12.4927L37.504 7.49063" stroke="#323232" stroke-width="1.5" stroke-linecap="round" stroke-linejoin="round"/>
<path d="M45.0078 7.49063L50.0099 12.4927L45.0078 17.4948" stroke="#323232" stroke-width="1.5" stroke-linecap="round" stroke-linejoin="round"/>
</mask>
<g mask="url(#mask0_122_6853)">
<rect x="-9" y="-13" width="77.5" height="85" fill="#788CA0"/>
<rect x="-9" y="-13" width="77.5" height="85" fill="url(#paint0_linear_122_6853)"/>
</g>
<defs>
<linearGradient id="paint0_linear_122_6853" x1="-9" y1="23.1538" x2="67.1553" y2="15.7886" gradientUnits="userSpaceOnUse">
<stop stop-color="#B697FE"/>
<stop offset="1" stop-color="#68C7FE"/>
</linearGradient>
</defs>
</svg>
